<?xml version="1.0" encoding="UTF-8" standalone="no"?>
<svg
   width="24"
   height="24"
   viewBox="0 0 24 24"
   fill="none"
   version="1.1"
   id="svg23"
   sodipodi:docname="blue-right-arrow.svg"
   inkscape:version="1.2.1 (9c6d41e410, 2022-07-14)"
   xmlns:inkscape="http://www.inkscape.org/namespaces/inkscape"
   xmlns:sodipodi="http://sodipodi.sourceforge.net/DTD/sodipodi-0.dtd"
   xmlns="http://www.w3.org/2000/svg"
   xmlns:svg="http://www.w3.org/2000/svg">
  <defs
     id="defs27" />
  <sodipodi:namedview
     id="namedview25"
     pagecolor="#505050"
     bordercolor="#eeeeee"
     borderopacity="1"
     inkscape:showpageshadow="0"
     inkscape:pageopacity="0"
     inkscape:pagecheckerboard="0"
     inkscape:deskcolor="#505050"
     showgrid="false"
     inkscape:zoom="49.333333"
     inkscape:cx="8.7668919"
     inkscape:cy="12"
     inkscape:window-width="2560"
     inkscape:window-height="1387"
     inkscape:window-x="1912"
     inkscape:window-y="-8"
     inkscape:window-maximized="1"
     inkscape:current-layer="svg23" />
  <path
     d="M 5,12 H 19"
     stroke="#f7931a"
     stroke-width="2"
     stroke-linecap="round"
     stroke-linejoin="round"
     id="path19"
     style="display:none;opacity:1;stroke-width:0;stroke-dasharray:none" />
  <path
     d="m 12,5 7,7 -7,7"
     stroke="#F7931A"
     stroke-width="2"
     stroke-linecap="round"
     stroke-linejoin="round"
     id="path21"
     style="display:none;opacity:1;stroke:#000000;stroke-width:0;stroke-dasharray:none;stroke-opacity:1" />
  <path
     style="display:none;opacity:1;fill:#000000;fill-opacity:1;stroke:#000000;stroke-width:0;stroke-linecap:butt;stroke-linejoin:bevel;stroke-miterlimit:0;stroke-dasharray:none;stroke-opacity:1"
     d="m 11.827703,19.973465 c -0.06132,-0.01013 -0.166217,-0.04417 -0.233108,-0.07565 -0.527015,-0.247995 -0.726177,-0.83887 -0.462043,-1.370791 0.03967,-0.07989 0.626123,-0.67759 2.769522,-2.822635 l 2.719194,-2.721284 h -5.891269 c -5.8430667,0 -5.8923481,-3.33e-4 -6.0231327,-0.04073 C 4.3520576,12.83279 4.08083,12.514589 4.0234026,12.140547 c -0.071853,-0.468001 0.2273251,-0.94204 0.6834637,-1.082927 0.1307846,-0.0404 0.180066,-0.04073 6.0231327,-0.04073 h 5.891269 L 13.902074,8.2956081 C 11.758675,6.1505627 11.172222,5.5528629 11.132552,5.472973 10.961259,5.1280195 10.979421,4.7530988 11.182128,4.4495432 11.388986,4.1397704 11.778585,3.96689 12.143237,4.0230608 c 0.0817,0.012585 0.204201,0.052179 0.292574,0.094565 0.149073,0.071498 0.221841,0.1426686 3.745679,3.6634554 1.976508,1.9747975 3.62064,3.6323238 3.653627,3.6833928 0.107988,0.167184 0.1472,0.309841 0.1472,0.535526 0,0.225685 -0.03921,0.368342 -0.1472,0.535526 -0.03299,0.05107 -1.677119,1.708596 -3.653627,3.683393 -3.52437,3.521319 -3.596583,3.591946 -3.745679,3.663423 -0.137037,0.06569 -0.348923,0.117616 -0.456081,0.111757 -0.0223,-0.0012 -0.09071,-0.0105 -0.152027,-0.02063 z"
     id="path1215" />
  <path
     style="display:inline;opacity:1;fill:#1a9af7;fill-opacity:1;stroke:#1a9af7;stroke-width:0;stroke-linecap:butt;stroke-linejoin:bevel;stroke-miterlimit:0;stroke-dasharray:none;stroke-opacity:1;paint-order:normal"
     d="m 11.765104,19.94707 c -0.25276,-0.06973 -0.50235,-0.266356 -0.619665,-0.488179 -0.0871,-0.164697 -0.11285,-0.273586 -0.111236,-0.470444 0.002,-0.240195 0.06601,-0.412742 0.218577,-0.588947 0.06476,-0.07479 1.303229,-1.324078 2.752152,-2.776189 l 2.634405,-2.640203 -4.174398,-0.0024 c -2.295919,-0.0013 -4.9730313,-0.0082 -5.9491381,-0.0152 l -1.7747397,-0.01276 -0.157292,-0.07776 C 4.1684012,12.66965 3.9437499,12.203826 4.0546863,11.777912 c 0.075448,-0.289662 0.2632522,-0.521398 0.5290463,-0.6528 l 0.1573145,-0.07777 1.4808278,-0.01282 c 0.8144552,-0.0071 3.4915705,-0.01389 5.9491451,-0.0152 l 4.468317,-0.0024 -2.634405,-2.6402028 C 12.556009,6.9245777 11.318989,5.676943 11.256,5.6041675 10.792344,5.0684792 11.071857,4.2385792 11.777869,4.0546863 c 0.221505,-0.057695 0.437793,-0.030994 0.659875,0.081463 0.148559,0.075226 0.835292,0.7490997 4.21763,4.1386538 3.49504,3.5024949 3.257944,3.2462269 3.305549,3.5728429 0.0176,0.120758 0.01743,0.196348 -6.93e-4,0.312944 -0.04968,0.319532 0.175652,0.07639 -3.284449,3.54408 -3.381565,3.388981 -4.089909,4.084173 -4.237686,4.159003 -0.215778,0.109265 -0.466564,0.140342 -0.672991,0.0834 z"
     id="path1424" />
</svg>
